<svg width="33" height="39" viewBox="0 0 33 39" fill="none" xmlns="http://www.w3.org/2000/svg">
<path d="M15.8991 7.96565L15.7989 8.74516L15.7445 8.95687C15.7308 9.01051 15.7214 9.06521 15.7167 9.1204L15.6988 9.32979L15.6657 9.50669C15.6544 9.56727 15.6487 9.62876 15.6487 9.69039V9.86571V10.2067V10.5478V10.7624C15.6487 10.8463 15.6593 10.93 15.6802 11.0113L15.7238 11.1811L15.7497 11.282C15.7822 11.4084 15.8392 11.5273 15.9173 11.6318L15.9992 11.7414L16.0725 11.8306C16.1564 11.9325 16.2596 12.0169 16.3762 12.0787L16.4095 12.0965C16.4531 12.1196 16.4983 12.1394 16.5448 12.1559L16.622 12.1832C16.7072 12.2133 16.7961 12.2318 16.8862 12.238L17.1009 12.253L17.3862 12.2356C17.4628 12.231 17.5387 12.2175 17.6122 12.1955L17.7088 12.1666C17.7873 12.1431 17.8626 12.11 17.9331 12.0681L18.1469 11.941C18.2336 11.8894 18.312 11.8251 18.3794 11.7501L18.5154 11.599C18.5901 11.5159 18.6503 11.4209 18.6936 11.3179L18.794 11.0792C18.8335 10.9853 18.8584 10.886 18.8679 10.7846L18.9036 10.4016L18.938 10.1004C18.9484 10.0093 18.9463 9.91726 18.9316 9.82676L18.8995 9.6293C18.8857 9.544 18.8567 9.46188 18.8138 9.38684C18.7738 9.31682 18.7459 9.24061 18.731 9.16136L18.7202 9.10338C18.709 9.04333 18.6923 8.98444 18.6703 8.92743L18.6282 8.81824L18.5767 8.71799C18.561 8.68745 18.5482 8.6555 18.5386 8.62256L18.521 8.56289C18.5092 8.52254 18.5067 8.48001 18.5138 8.43856C18.5365 8.30609 18.6514 8.20924 18.7858 8.20924H18.8285L19.0083 8.22674C19.0553 8.23131 19.1019 8.23921 19.1478 8.25037L19.5797 8.3554L20.1055 8.50156L20.5311 8.67208L20.9818 8.91568L21.4325 9.18364L21.8086 9.40728C21.8582 9.43677 21.9052 9.47049 21.9489 9.50807L22.3088 9.81699L22.4856 9.97183C22.5345 10.0147 22.5792 10.0622 22.6189 10.1136L22.7845 10.3285L22.9848 10.6452L23.0887 10.8137C23.1195 10.8637 23.1459 10.9163 23.1675 10.9709L23.2602 11.2055L23.3854 11.5709L23.4543 11.8052C23.4751 11.8761 23.488 11.9491 23.4927 12.0229L23.5106 12.3017L23.5677 12.5977C23.5797 12.66 23.5857 12.7234 23.5857 12.7869V13.1056L23.5607 13.5197V13.9094V14.2992L23.5357 14.5671L23.4856 14.8107L23.4105 15.0787L23.3354 15.4441L23.2853 15.98V16.5403V16.7305C23.2853 16.8145 23.2959 16.8981 23.3167 16.9794L23.3604 17.1493C23.3932 17.2291 23.4463 17.299 23.5144 17.352L23.5357 17.3685L23.6016 17.4166C23.6243 17.4332 23.6494 17.446 23.6761 17.4547C23.7462 17.4774 23.8226 17.47 23.887 17.4342L23.9203 17.4157C23.9475 17.4005 23.9726 17.3819 23.9949 17.3602L24.1115 17.2467L24.2357 17.1259C24.2697 17.0928 24.3013 17.0573 24.3303 17.0197L24.437 16.8813L24.5622 16.6864L24.6874 16.4916L24.9628 16.0775L25.0348 15.9513C25.0702 15.8894 25.112 15.8315 25.1597 15.7785L25.2633 15.6633L25.4385 15.4928L25.6138 15.3223L26.3399 14.7133L26.9082 14.3518C26.9632 14.3168 27.0215 14.2873 27.0823 14.2636L27.3665 14.153L27.5668 14.1043L27.742 14.08H27.8536C27.8791 14.08 27.9045 14.0847 27.9283 14.094L27.9645 14.108C27.9981 14.1211 28.0242 14.1483 28.0359 14.1825C28.0403 14.1952 28.0425 14.2086 28.0425 14.2221V14.2992L28.0332 14.3986C28.0228 14.5102 27.9937 14.6192 27.9471 14.7211L27.9173 14.7864L27.7979 15.0353C27.7608 15.1126 27.7338 15.1944 27.7176 15.2786L27.685 15.4478C27.673 15.5101 27.6669 15.5735 27.6669 15.637V16.2236L27.717 16.93L27.7921 17.6121L27.9173 18.3186L28.0425 19.0006L28.2428 19.6583L28.368 20.4135L28.4431 21.0712L28.4932 21.7533L28.5592 22.4383C28.5652 22.5012 28.5653 22.5644 28.5595 22.6273L28.4932 23.3367L28.3429 24.0675L28.2889 24.2953C28.2749 24.3544 28.2555 24.4121 28.231 24.4677L28.1927 24.5547L28.0926 24.7252L27.9547 24.9711C27.9465 24.9857 27.9396 25.0011 27.9341 25.0171L27.8788 25.1785C27.8587 25.2373 27.8906 25.3012 27.9498 25.3203C27.9771 25.3292 28.0069 25.3271 28.0327 25.3146L28.1448 25.2601C28.1766 25.2446 28.2064 25.2251 28.2333 25.2022L28.2769 25.1651C28.3537 25.0997 28.4186 25.0214 28.4686 24.9338L28.5182 24.847L28.8187 24.4329L29.1191 24.0675L29.4775 23.6777L29.8953 23.2879L30.2176 22.9939C30.2697 22.9465 30.3266 22.9046 30.3874 22.8691L30.7286 22.67C30.7739 22.6435 30.8212 22.6207 30.8701 22.6017L31.2184 22.4661C31.271 22.4456 31.3252 22.4297 31.3805 22.4183L31.7731 22.3379L32.1298 22.2994C32.1923 22.2926 32.2554 22.2918 32.3181 22.2968L32.4519 22.3077C32.5 22.3116 32.5475 22.3211 32.5934 22.336L32.6293 22.3476C32.755 22.3884 32.8606 22.475 32.9252 22.5902C32.9581 22.6488 32.9794 22.7132 32.9879 22.7799L32.9896 22.7929C32.9965 22.8466 32.996 22.901 32.9882 22.9545L32.975 23.0443L32.9543 23.1248C32.9349 23.2002 32.8993 23.2704 32.8498 23.3305C32.8331 23.3508 32.8179 23.3724 32.8044 23.3949L32.7132 23.5471C32.6709 23.6177 32.6374 23.6932 32.6136 23.7719L32.5243 24.0675L32.349 24.8713L32.2489 25.6752L32.0736 26.4547L31.8733 27.2586L31.648 27.9894L31.4226 28.7202L30.9469 30.0843L30.371 31.4485L29.7701 32.6908L29.0804 33.8478C29.0562 33.8884 29.0291 33.9273 28.9994 33.964L28.543 34.5292C28.5098 34.5703 28.4735 34.6086 28.4343 34.6439L27.8171 35.1999L27.1161 35.7845L26.39 36.2717L25.6138 36.7589L24.7625 37.1974L23.8862 37.6115L23.0293 37.9495C22.983 37.9677 22.9354 37.9825 22.8869 37.9937L22.0083 38.1961L21.107 38.3666L20.2307 38.5372L19.2291 38.7077L18.3278 38.8295L17.4014 38.8782L16.3998 38.9513H15.4234L14.7223 39L14.0212 38.9756L13.4234 38.9541C13.3714 38.9522 13.3195 38.9463 13.2684 38.9363L12.7193 38.8295L11.9431 38.7564L11.217 38.6102L10.541 38.4641L9.86495 38.2205L9.18892 37.9769L8.5129 37.6846L7.91199 37.3679L7.31108 37.0512L6.76024 36.6858L6.20941 36.2473L5.74663 35.8829C5.70469 35.8498 5.66545 35.8135 5.62931 35.7742L5.25797 35.3704L4.29381 34.3637C4.25229 34.3204 4.21477 34.2734 4.18168 34.2233L3.78073 33.6165L3.33005 32.8857L2.97951 32.0818L2.67906 31.3023L2.3786 30.4984L2.12822 29.6458L1.978 28.8176L1.85281 28.0381L1.67754 27.2099L1.55235 26.4304L1.35205 25.5778L1.2519 25.188L1.15175 24.8226L1.05744 24.5059L0.956732 24.1689C0.936569 24.1015 0.909337 24.0363 0.875487 23.9746L0.7261 23.7021L0.525797 23.4097L0.381747 23.1995C0.344337 23.1449 0.301599 23.0942 0.254163 23.048L0.200303 22.9956L0.0491951 22.8854C0.0182801 22.8628 0 22.8268 0 22.7886C0 22.7503 0.0182802 22.7143 0.0491951 22.6918L0.135589 22.6287C0.178115 22.5977 0.227443 22.5773 0.279461 22.5692L0.749805 22.496C0.800694 22.4881 0.852118 22.4841 0.903619 22.4841H1.47724H2.07884C2.12839 22.4841 2.17787 22.4878 2.22687 22.4951L2.80425 22.5815L3.30041 22.7074C3.35346 22.7209 3.40532 22.7387 3.45546 22.7607L3.88088 22.9469L4.33638 23.1368C4.38315 23.1563 4.42806 23.18 4.47057 23.2076L4.65354 23.3263C4.78053 23.4086 4.94074 23.4206 5.07857 23.358C5.17797 23.3129 5.25726 23.2327 5.30127 23.1328L5.3504 23.0213C5.37218 22.9718 5.38864 22.9202 5.39952 22.8673L5.41932 22.771C5.44505 22.6458 5.44655 22.5169 5.42375 22.3912L5.38316 22.1674L5.283 21.802L5.13278 21.4122L4.94006 20.7456C4.91839 20.6706 4.888 20.5984 4.84953 20.5305L4.23141 19.4391L3.60546 18.0993L3.4149 17.4813C3.39179 17.4064 3.37758 17.329 3.37256 17.2507L3.33005 16.589V15.7286C3.33005 15.5735 3.36609 15.4206 3.43535 15.2819L3.75569 14.6402L3.93096 14.3723L4.62687 13.4921C4.66361 13.4456 4.70441 13.4025 4.74879 13.3632L5.35227 12.8295C5.45477 12.7388 5.57784 12.6745 5.71081 12.6422L5.77045 12.6277C5.79593 12.6215 5.82205 12.6184 5.84827 12.6184H5.90263C6.02367 12.6184 6.12879 12.7017 6.15642 12.8195C6.16114 12.8397 6.16344 12.8603 6.16329 12.8809L6.16005 13.3242C6.15957 13.3894 6.16547 13.4545 6.17766 13.5185L6.28452 14.08L6.76024 15.4928L7.06139 16.1625C7.09419 16.2355 7.13563 16.3042 7.18482 16.3673L7.60604 16.9075C7.64301 16.9549 7.68418 16.9989 7.72905 17.0389L7.96206 17.2467L8.20436 17.4196C8.29262 17.4826 8.39054 17.5308 8.49427 17.5623L8.63389 17.6048C8.70308 17.6258 8.77499 17.6365 8.8473 17.6365H8.94278C9.09883 17.6365 9.24691 17.5675 9.34734 17.4481C9.39153 17.3955 9.42506 17.3349 9.44606 17.2695L9.51417 17.0575C9.531 17.0051 9.54347 16.9514 9.55147 16.897L9.55907 16.8452C9.57916 16.7084 9.57066 16.5689 9.53411 16.4355L9.48938 16.2723L8.98178 14.1558C8.96966 14.1053 8.96151 14.0539 8.95737 14.0022L8.76328 11.5709V10.0385C8.76328 9.98835 8.76706 9.93823 8.77458 9.88861L8.98862 8.4772L9.28885 7.46608C9.30566 7.40948 9.32745 7.35448 9.35395 7.30172L9.86495 6.28482L10.4158 5.48095L10.9917 4.7258L11.6176 3.97064L12.1434 3.33729L12.6942 2.53342L13.1449 1.70518L13.6457 0.876952L14.0127 0.120765C14.0486 0.0468988 14.1235 0 14.2056 0C14.2486 0 14.2907 0.0129581 14.3262 0.0371877L14.3974 0.0856576C14.4786 0.140971 14.5415 0.21926 14.578 0.310507L14.6973 0.608994L14.8475 0.974391L15.2982 2.04622L15.5486 2.65522L15.7489 3.38601L15.849 3.97064L15.9241 4.50656L15.9992 5.06683L16.0243 5.65147V6.1143V6.57714L15.9742 7.28357L15.8991 7.96565Z" fill="#D30000"/>
</svg>
