<svg width="33" height="38" viewBox="0 0 33 38" fill="none" xmlns="http://www.w3.org/2000/svg">
<path d="M15.8991 7.7614L15.7989 8.52092L15.7456 8.72328C15.7311 8.77816 15.7213 8.83417 15.7164 8.89071L15.6988 9.09057L15.6666 9.25832C15.6547 9.32041 15.6487 9.38348 15.6487 9.44669V9.61274V9.94503V10.2773V10.48C15.6487 10.566 15.6598 10.6518 15.6818 10.735L15.7238 10.8944L15.7477 10.985C15.7815 11.1132 15.8405 11.2335 15.9212 11.3387L15.9992 11.4403L16.0713 11.5257C16.156 11.6261 16.2596 11.7087 16.3762 11.769L16.4103 11.7867C16.4534 11.8089 16.4979 11.828 16.5437 11.8438L16.6247 11.8717C16.7081 11.9005 16.795 11.9181 16.883 11.924L17.1009 11.9388L17.3889 11.9217C17.4638 11.9173 17.5378 11.9045 17.6098 11.8835L17.7106 11.8541C17.7879 11.8315 17.8622 11.7997 17.9319 11.7593L18.1468 11.6349C18.2336 11.5846 18.3123 11.5215 18.3803 11.4478L18.5125 11.3046C18.5891 11.2217 18.6511 11.1263 18.6958 11.0226L18.7913 10.8014C18.8326 10.7058 18.8586 10.6043 18.8686 10.5006L18.9036 10.1349L18.9372 9.84852C18.9482 9.7551 18.9459 9.66059 18.9304 9.56781L18.8997 9.38315C18.8857 9.29957 18.8566 9.21923 18.8138 9.14613C18.7738 9.07794 18.7458 9.00344 18.7309 8.92582L18.721 8.8742C18.7093 8.81288 18.6918 8.75279 18.6688 8.69472L18.6282 8.59213L18.5765 8.49407C18.5609 8.46457 18.5483 8.43364 18.5386 8.40171L18.5215 8.34467C18.5093 8.3045 18.5068 8.26205 18.5141 8.22072C18.5367 8.09236 18.6482 7.99875 18.7785 7.99875H18.8285L19.0789 8.02249L19.5797 8.14116L20.1055 8.28357L20.5311 8.44972L20.9818 8.68707L21.4325 8.94816L21.8088 9.16615C21.8583 9.19483 21.9052 9.2277 21.9491 9.2644L22.3088 9.56527L22.4847 9.71536C22.5342 9.75761 22.5795 9.8046 22.6199 9.85565L22.7845 10.0637L22.9848 10.3723L23.0871 10.5339C23.119 10.5843 23.1463 10.6374 23.1688 10.6927L23.2602 10.9182L23.3854 11.2742L23.4527 11.4974C23.4746 11.5699 23.4881 11.6446 23.4931 11.7202L23.5106 11.9863L23.5667 12.2699C23.5794 12.3338 23.5857 12.3988 23.5857 12.464V12.7695L23.5607 13.173V13.5528V13.9325L23.5357 14.1936L23.4856 14.431L23.4105 14.6921L23.3354 15.0481L23.2853 15.5703V16.1162V16.2951C23.2853 16.3812 23.2964 16.4669 23.3183 16.5501L23.3604 16.7096C23.3932 16.7873 23.4459 16.8551 23.5131 16.9061L23.5357 16.9232L23.6011 16.9697C23.6241 16.986 23.6495 16.9987 23.6764 17.0072C23.7465 17.0294 23.8225 17.0221 23.8871 16.9871L23.9197 16.9694C23.9473 16.9545 23.9728 16.936 23.9956 16.9144L24.1115 16.8045L24.2349 16.6875C24.2695 16.6548 24.3016 16.6196 24.3312 16.5823L24.437 16.4485L24.5622 16.2586L24.6874 16.0687L24.9628 15.6652L25.0334 15.5448C25.0697 15.4829 25.1126 15.425 25.1613 15.3722L25.2633 15.2617L25.4385 15.0956L25.6138 14.9294L26.3399 14.336L26.9089 13.9834C26.9634 13.9496 27.0211 13.9211 27.0811 13.8983L27.3665 13.7901L27.5668 13.7427L27.742 13.7189H27.8544C27.8794 13.7189 27.9043 13.7235 27.9277 13.7323L27.9658 13.7468C27.9986 13.7592 28.0242 13.7855 28.0358 13.8185C28.0402 13.8311 28.0425 13.8445 28.0425 13.8579V13.9325L28.034 14.0213C28.023 14.1353 27.9926 14.2466 27.944 14.3504L27.9173 14.4072L27.8003 14.645C27.7616 14.7235 27.7334 14.8068 27.7165 14.8926L27.6859 15.047C27.6733 15.1109 27.6669 15.1758 27.6669 15.241V15.8076L27.717 16.4959L27.7921 17.1605L27.9173 17.8488L28.0425 18.5134L28.2428 19.1543L28.368 19.8901L28.4431 20.5309L28.4932 21.1955L28.5587 21.8581C28.5651 21.9226 28.5652 21.9875 28.559 22.052L28.4932 22.7383L28.3429 23.4503L28.2899 23.6684C28.2752 23.7286 28.255 23.7873 28.2294 23.8438L28.1927 23.925L28.0926 24.0912L27.9547 24.3308C27.9465 24.3451 27.9396 24.3601 27.9341 24.3756L27.88 24.5294C27.8593 24.5883 27.8915 24.6527 27.951 24.6715C27.9776 24.6799 28.0064 24.6779 28.0317 24.666L28.1442 24.6126C28.1764 24.5974 28.2066 24.5781 28.234 24.5554L28.2761 24.5204C28.3535 24.4563 28.419 24.3792 28.4698 24.2925L28.5182 24.2099L28.8187 23.8064L29.1191 23.4503L29.4775 23.0706L29.8953 22.6908L30.2174 22.4046C30.2696 22.3582 30.3265 22.3174 30.3872 22.2828L30.7293 22.0883C30.7741 22.0628 30.8209 22.0408 30.8691 22.0225L31.2199 21.8895C31.2715 21.8699 31.3246 21.8547 31.3787 21.8439L31.7731 21.7651L32.1322 21.7273C32.1931 21.7209 32.2546 21.7201 32.3157 21.7249L32.4531 21.7358C32.5004 21.7395 32.5471 21.7486 32.5924 21.7629L32.6343 21.7762C32.7568 21.8149 32.8603 21.8981 32.9243 22.0094C32.9578 22.0675 32.9795 22.1316 32.9882 22.1981L32.9896 22.2083C32.9965 22.2607 32.996 22.3139 32.9881 22.3662L32.975 22.4535L32.9546 22.5306C32.935 22.6048 32.8992 22.6738 32.8497 22.7324C32.8331 22.7521 32.818 22.773 32.8044 22.795L32.7155 22.9395C32.6717 23.0108 32.6369 23.0873 32.6121 23.1672L32.5243 23.4503L32.349 24.2336L32.2489 25.0169L32.0736 25.7764L31.8733 26.5597L31.648 27.2717L31.4226 27.9838L30.9469 29.3129L30.371 30.6421L29.7701 31.8526L29.0814 32.9783C29.0565 33.0189 29.0287 33.0578 28.9983 33.0945L28.5438 33.6429C28.5101 33.6835 28.4732 33.7214 28.4335 33.7563L27.8171 34.2973L27.1161 34.867L26.39 35.3417L25.6138 35.8164L24.7625 36.2436L23.8862 36.6471L23.0281 36.9769C22.9826 36.9944 22.9359 37.0085 22.8884 37.0191L22.0083 37.2167L21.107 37.3829L20.2307 37.549L19.2291 37.7152L18.3278 37.8339L17.4014 37.8813L16.3998 37.9525H15.4234L14.7223 38L14.0212 37.9763L13.4215 37.9552C13.3707 37.9534 13.3202 37.9478 13.2703 37.9383L12.7193 37.8339L11.9431 37.7626L11.217 37.6202L10.541 37.4778L9.86495 37.2405L9.18892 37.0031L8.5129 36.7183L7.91199 36.4097L7.31108 36.1012L6.76024 35.7452L6.20941 35.3179L5.74711 34.9632C5.70484 34.9307 5.66524 34.895 5.62868 34.8562L5.25797 34.4635L4.29499 33.4838C4.25269 33.4408 4.21437 33.394 4.18051 33.344L3.78073 32.7545L3.36848 32.1032C3.34289 32.0628 3.32023 32.0205 3.30069 31.9769L2.97951 31.2592L2.67906 30.4997L2.3786 29.7164L2.12822 28.8857L1.978 28.0787L1.85281 27.3192L1.67754 26.5122L1.55235 25.7527L1.35205 24.9219L1.2519 24.5422L1.15175 24.1861L1.05744 23.8776L0.958029 23.5535C0.937006 23.4849 0.908673 23.4188 0.873519 23.3563L0.7261 23.0943L0.525797 22.8095L0.382976 22.6064C0.344749 22.5521 0.3012 22.5016 0.252973 22.4559L0.200303 22.406L0.0483608 22.298C0.0180208 22.2764 0 22.2415 0 22.2042C0 22.167 0.0180208 22.1321 0.0483608 22.1105L0.137057 22.0475C0.17864 22.0179 0.226584 21.9985 0.277028 21.9909L0.751698 21.9189C0.80133 21.9113 0.851459 21.9076 0.901658 21.9076H1.47724H2.08073C2.12902 21.9076 2.17725 21.9111 2.22504 21.918L2.80425 22.0025L3.30191 22.1256C3.35397 22.1384 3.4049 22.1555 3.45422 22.1765L3.88088 22.3585L4.336 22.5434C4.38302 22.5625 4.42826 22.5858 4.47117 22.6129L4.65505 22.7291C4.78149 22.809 4.93944 22.8207 5.07622 22.7601C5.17714 22.7155 5.25806 22.6352 5.30352 22.5347L5.34986 22.4322C5.37199 22.3832 5.38875 22.332 5.39984 22.2794L5.41729 22.1968C5.44434 22.0685 5.44592 21.9362 5.42194 21.8073L5.38316 21.599L5.283 21.243L5.13278 20.8632L4.94146 20.2184C4.91886 20.1422 4.88726 20.069 4.84732 20.0003L4.23141 18.9407L3.60546 17.6352L3.4166 17.0385C3.39237 16.9619 3.37745 16.8827 3.37217 16.8025L3.33005 16.1636V15.3368C3.33005 15.1783 3.36776 15.022 3.44007 14.8808L3.75569 14.2648L3.93096 14.0037L4.62593 13.1473C4.6633 13.1012 4.70469 13.0586 4.74962 13.0199L5.3502 12.5023C5.45411 12.4128 5.57802 12.3495 5.71149 12.3179L5.77104 12.3038C5.79613 12.2978 5.82183 12.2948 5.84761 12.2948H5.90849C6.02625 12.2948 6.12867 12.3755 6.15622 12.49C6.16107 12.5102 6.16344 12.5308 6.16329 12.5515L6.16009 12.9775C6.15959 13.0444 6.16579 13.1111 6.17861 13.1768L6.28452 13.7189L6.76024 15.0956L7.05971 15.7445C7.09363 15.8179 7.13634 15.887 7.18691 15.9502L7.60507 16.4728C7.64268 16.5198 7.68447 16.5633 7.72991 16.6028L7.96206 16.8045L8.20535 16.9736C8.29297 17.0345 8.38978 17.081 8.49211 17.1113L8.6343 17.1535C8.70323 17.1739 8.77475 17.1843 8.84664 17.1843H8.94866C9.10122 17.1843 9.24623 17.1179 9.3459 17.0024C9.39103 16.9501 9.4254 16.8894 9.44702 16.8238L9.51296 16.6238C9.53059 16.5703 9.54367 16.5154 9.55207 16.4597L9.55747 16.4238C9.5786 16.2836 9.56967 16.1405 9.53128 16.004L9.48938 15.8551L8.98269 13.7966C8.96997 13.7449 8.9614 13.6923 8.95705 13.6392L8.76328 11.2742V9.78504C8.76328 9.73354 8.76725 9.68213 8.77517 9.63125L8.98862 8.25984L9.28776 7.27824C9.30529 7.2207 9.32798 7.16486 9.35556 7.1114L9.86495 6.12367L10.4158 5.34041L10.9917 4.60462L11.6176 3.86883L12.1434 3.25172L12.6942 2.46846L13.1449 1.66146L13.6457 0.854466L14.0113 0.120555C14.0481 0.0466895 14.1235 0 14.206 0C14.2488 0 14.2906 0.0126202 14.3263 0.0362816L14.3957 0.082344C14.478 0.136955 14.542 0.214991 14.5795 0.306369L14.6973 0.593379L14.8475 0.949407L15.2982 1.99375L15.5486 2.58713L15.7489 3.29919L15.849 3.86883L15.9241 4.39101L15.9992 4.93691L16.0243 5.50656V5.95753V6.40849L15.9742 7.09681L15.8991 7.7614Z" fill="black"/>
</svg>
