<svg width="13" height="15" viewBox="0 0 13 15" fill="none" xmlns="http://www.w3.org/2000/svg">
<path d="M6.26328 3.06371L6.22382 3.36352L6.2159 3.39363C6.20148 3.44841 6.19174 3.50432 6.18679 3.56076L6.18437 3.58838L6.18247 3.59829C6.17061 3.66025 6.16464 3.7232 6.16464 3.78629V3.7945V3.92567V4.05684V4.07175C6.16464 4.14893 6.17459 4.2258 6.19423 4.30044C6.21377 4.37465 6.24785 4.44424 6.2945 4.50518L6.30273 4.51593L6.32402 4.54121C6.36206 4.58637 6.40863 4.6236 6.46106 4.65077C6.48042 4.6608 6.50048 4.66941 6.52109 4.67653L6.5285 4.67908C6.57505 4.69516 6.62353 4.705 6.67267 4.70833L6.73672 4.71268L6.83025 4.70713C6.87297 4.70459 6.91527 4.69725 6.95636 4.68524C7.00046 4.67235 7.04285 4.65417 7.0826 4.6311L7.1174 4.6109C7.17236 4.579 7.2222 4.53901 7.26525 4.49227C7.31366 4.43971 7.35283 4.37934 7.38109 4.31371L7.38462 4.30553C7.41281 4.24007 7.43062 4.17062 7.43741 4.09968L7.44689 4.00062L7.45751 3.90983C7.46355 3.85819 7.46229 3.80595 7.45376 3.75466L7.44532 3.70385C7.43984 3.67087 7.42837 3.63917 7.4115 3.61031C7.39575 3.5834 7.38471 3.55399 7.37885 3.52337L7.37495 3.50297C7.37031 3.47877 7.36343 3.45505 7.35438 3.43212L7.33839 3.39163L7.31802 3.35293C7.31189 3.34128 7.30689 3.32907 7.3031 3.31646L7.29632 3.29391C7.29155 3.27808 7.29056 3.26135 7.29342 3.24507C7.30231 3.19438 7.34634 3.1574 7.39781 3.1574H7.4173L7.51593 3.16677L7.7132 3.21362L7.92033 3.26983L8.08801 3.33542L8.26555 3.42911L8.4431 3.53217L8.54624 3.59204C8.59575 3.62078 8.64269 3.65371 8.68656 3.69048L8.78832 3.77577L8.81256 3.79649C8.86203 3.83879 8.90726 3.88581 8.9476 3.9369L8.97572 3.97252L9.05463 4.09432L9.06598 4.11229C9.0978 4.16267 9.12506 4.21579 9.14742 4.27102L9.16313 4.30981L9.21244 4.45034L9.21914 4.47261C9.24091 4.54498 9.2544 4.61958 9.25936 4.69499L9.26176 4.73142L9.27242 4.78542C9.28501 4.8492 9.29135 4.91406 9.29135 4.97908V5.0406L9.28149 5.19987V5.34978V5.49969L9.27162 5.60275L9.2519 5.69644L9.22231 5.7995L9.19272 5.94004L9.17299 6.14616V6.36165V6.36719C9.17299 6.44437 9.18293 6.52124 9.20258 6.59588C9.2155 6.62657 9.23626 6.65333 9.26278 6.67348L9.27162 6.6802L9.29741 6.69857C9.30647 6.70502 9.31647 6.71002 9.32707 6.71337C9.35467 6.72211 9.38463 6.71924 9.41007 6.70544L9.42295 6.69845C9.4338 6.69255 9.44384 6.68526 9.4528 6.67675L9.49848 6.63335L9.51569 6.61701C9.5502 6.58422 9.58233 6.54902 9.61183 6.51166L9.62671 6.49282L9.67602 6.41786L9.72534 6.34291L9.83384 6.18364C9.86662 6.12758 9.90535 6.07522 9.94934 6.02746L9.9522 6.02436L10.0212 5.95878L10.0903 5.89319L10.3763 5.65896L10.5507 5.55067C10.6053 5.51676 10.663 5.48819 10.7231 5.46537L10.7807 5.44347L10.8596 5.42473L10.9287 5.41537H10.9729C10.9828 5.41537 10.9926 5.41716 11.0018 5.42067L11.0168 5.42636C11.0297 5.43127 11.0398 5.44163 11.0444 5.45467C11.0461 5.45966 11.047 5.46491 11.047 5.4702V5.49969L11.046 5.51008C11.0402 5.5714 11.0238 5.63127 10.9977 5.68707L10.9673 5.74891C10.9417 5.80115 10.923 5.85653 10.9117 5.91363C10.9033 5.95612 10.8991 5.99932 10.8991 6.04263V6.23985L10.9188 6.51156L10.9484 6.77389L10.9977 7.0456L11.047 7.30793L11.1259 7.5609L11.1753 7.85134L11.2049 8.10431L11.2246 8.36665L11.2446 8.56973C11.251 8.63406 11.2511 8.69886 11.2449 8.76322L11.2246 8.97564L11.1654 9.25671L11.1528 9.3086C11.1415 9.35511 11.1259 9.40047 11.1062 9.4441L11.0668 9.50968L11.0125 9.60427C11.0092 9.60991 11.0065 9.61583 11.0044 9.62196L10.983 9.68278C10.9749 9.70598 10.9875 9.73131 11.011 9.73873C11.0215 9.74206 11.0328 9.74128 11.0428 9.73655L11.0871 9.7155C11.0998 9.70948 11.1117 9.70189 11.1225 9.69292L11.1391 9.6791C11.1696 9.65379 11.1954 9.62337 11.2153 9.5892L11.2344 9.55653L11.3528 9.39725L11.4712 9.25671L11.6124 9.10681L11.7769 8.9569L11.8562 8.8863C11.9084 8.8398 11.9654 8.79891 12.0261 8.7643L12.0646 8.74236C12.1095 8.71678 12.1563 8.69472 12.2046 8.67637L12.2516 8.65848C12.3033 8.63885 12.3565 8.62353 12.4107 8.61269L12.5167 8.59151L12.6415 8.57833C12.6766 8.57463 12.7119 8.57417 12.7471 8.57695L12.7845 8.57991C12.8032 8.58139 12.8216 8.58499 12.8394 8.59064L12.8558 8.59582C12.9041 8.61112 12.945 8.64401 12.9702 8.68797C12.9834 8.71089 12.9919 8.73615 12.9954 8.76235L12.9959 8.76643C12.9986 8.78712 12.9984 8.8081 12.9953 8.82874L12.9901 8.86321L12.9821 8.89371C12.9744 8.92298 12.9603 8.95017 12.9408 8.97333C12.9342 8.9811 12.9283 8.98936 12.923 8.99802L12.9052 9.0269C12.8765 9.07374 12.8537 9.12401 12.8374 9.17652L12.8126 9.25671L12.7436 9.5659L12.7041 9.87508L12.6351 10.1749L12.5561 10.4841L12.4674 10.7651L12.3786 11.0462L12.1912 11.5709L11.9643 12.0956L11.7276 12.5734L11.4789 12.9808C11.454 13.0214 11.4263 13.0603 11.396 13.097L11.2751 13.2431C11.2415 13.2837 11.2047 13.3217 11.165 13.3566L10.9583 13.5384L10.6821 13.7633L10.3961 13.9507L10.0903 14.138L9.75493 14.3067L9.40971 14.466L9.11315 14.5802C9.06762 14.5977 9.02087 14.6119 8.97327 14.6226L8.66995 14.6908L8.31487 14.7564L7.96965 14.822L7.57511 14.8876L7.22003 14.9344L6.85508 14.9532L6.46055 14.9813H6.07587L5.7997 15L5.52352 14.9906L5.3336 14.9839C5.28274 14.9822 5.2321 14.9765 5.18212 14.967L5.01062 14.9344L4.70486 14.9063L4.41882 14.8501L4.1525 14.7939L3.88619 14.7002L3.61988 14.6065L3.35357 14.4941L3.11684 14.3723L2.88012 14.2505L2.66313 14.1099L2.44613 13.9413L2.30246 13.8308C2.26022 13.7983 2.22064 13.7625 2.18411 13.7237L2.07132 13.604L1.73041 13.2565C1.68817 13.2134 1.64991 13.1666 1.61611 13.1167L1.48938 12.9294L1.35017 12.709C1.32465 12.6686 1.30205 12.6264 1.28256 12.5828L1.17375 12.3392L1.05539 12.0394L0.937026 11.7302L0.838392 11.4022L0.779211 11.0837L0.729894 10.7839L0.66085 10.4653L0.611533 10.1655L0.532625 9.8376L0.493171 9.6877L0.453718 9.54716L0.416566 9.42536L0.39647 9.3597C0.375515 9.29124 0.347269 9.22523 0.312217 9.1628L0.286039 9.11618L0.207132 9.00375L0.1673 8.94699C0.141314 8.90997 0.111704 8.87562 0.0789074 8.84447L0.0190768 8.80185C0.00710709 8.79332 0 8.77953 0 8.76483C0 8.75014 0.00710707 8.73635 0.0190768 8.72782L0.0539474 8.70298C0.0703574 8.69129 0.0892862 8.68362 0.109206 8.68059L0.266162 8.65674C0.30566 8.65073 0.345554 8.64772 0.385506 8.64772H0.581942H0.775573C0.823964 8.64772 0.872291 8.65123 0.920173 8.65823L1.1047 8.6852L1.25324 8.722C1.30537 8.73492 1.35638 8.75202 1.40576 8.77313L1.52883 8.82573L1.70813 8.89873C1.72665 8.90626 1.74446 8.91544 1.76135 8.92613L1.83376 8.97199C1.88359 9.00354 1.94588 9.00814 1.9998 8.98423C2.0395 8.96663 2.07133 8.93501 2.0892 8.89542L2.10754 8.85477C2.11625 8.83547 2.12284 8.81528 2.1272 8.79456L2.13111 8.77598C2.14373 8.71604 2.14447 8.65421 2.13328 8.59398L2.12064 8.52592L2.08118 8.38538L2.022 8.23548L1.96715 8.05021C1.94462 7.97412 1.91311 7.90098 1.87329 7.83233L1.66692 7.47658L1.42033 6.96127L1.36791 6.79528C1.34377 6.71884 1.3289 6.63977 1.32364 6.55977L1.31184 6.38039V6.19962C1.31184 6.04132 1.34942 5.88528 1.42148 5.74434L1.47951 5.63086L1.54856 5.5278L1.78837 5.23167C1.82569 5.18558 1.86704 5.1429 1.91192 5.10414L2.10772 4.93507C2.14861 4.89976 2.1974 4.87481 2.24996 4.86233L2.27342 4.85675C2.28332 4.8544 2.29345 4.85322 2.30362 4.85322H2.32741C2.3739 4.85322 2.41433 4.88509 2.42519 4.93029C2.42709 4.93823 2.42802 4.94637 2.42796 4.95453L2.42715 5.06312C2.42665 5.12914 2.43277 5.19504 2.4454 5.25985L2.47572 5.41537L2.66313 5.95878L2.75028 6.14801C2.78411 6.22146 2.82673 6.29053 2.87719 6.35372L2.96174 6.45959C2.99931 6.50663 3.04105 6.55018 3.08645 6.58971L3.13657 6.63335L3.21345 6.68691C3.26053 6.7197 3.31256 6.74474 3.36755 6.76106L3.40138 6.7711C3.42854 6.77917 3.45673 6.78326 3.48506 6.78326H3.52505C3.58526 6.78326 3.64247 6.75703 3.68176 6.71141C3.69951 6.69081 3.71302 6.6669 3.72152 6.64107L3.74626 6.56587C3.75405 6.5422 3.75983 6.5179 3.76354 6.49325C3.77287 6.43121 3.76892 6.36789 3.75197 6.30748L3.73824 6.25859L3.55015 5.49287C3.53747 5.44128 3.52893 5.38877 3.5246 5.33582L3.4522 4.45034V3.90918C3.4522 3.85779 3.45616 3.80648 3.46405 3.7557L3.54097 3.26046L3.64293 2.92523C3.6604 2.86776 3.68302 2.81198 3.71051 2.75857L3.88619 2.41724L4.10319 2.10806L4.33005 1.81761L4.57663 1.52717L4.78376 1.28357L5.00076 0.974391L5.1783 0.65584L5.37557 0.337289L5.51963 0.0474984C5.5341 0.0183994 5.5638 0 5.59629 0C5.61316 0 5.62965 0.00498188 5.64369 0.0143204L5.67109 0.0325383C5.70348 0.0540733 5.72867 0.0848229 5.7434 0.120817L5.78983 0.234229L5.84901 0.374766L6.02656 0.787008L6.12519 1.02124L6.2041 1.30231L6.24355 1.52717L6.27314 1.73329L6.30273 1.94878L6.31259 2.17364V2.35166V2.52967L6.29287 2.80137L6.26328 3.06371Z" fill="#D30000"/>
</svg>
