<svg width="84" height="16" viewBox="0 0 84 16" fill="none" xmlns="http://www.w3.org/2000/svg">
<path d="M20.2633 4.06371L20.2238 4.36352L20.2159 4.39363C20.2015 4.44841 20.1917 4.50432 20.1868 4.56076L20.1844 4.58838L20.1825 4.59829C20.1706 4.66025 20.1646 4.7232 20.1646 4.78629V4.7945V4.92567V5.05684V5.07175C20.1646 5.14893 20.1746 5.2258 20.1942 5.30044C20.2138 5.37465 20.2478 5.44424 20.2945 5.50518L20.3027 5.51593L20.324 5.54121C20.3621 5.58637 20.4086 5.6236 20.4611 5.65077C20.4804 5.6608 20.5005 5.66941 20.5211 5.67653L20.5285 5.67908C20.5751 5.69516 20.6235 5.705 20.6727 5.70833L20.7367 5.71268L20.8302 5.70713C20.873 5.70459 20.9153 5.69725 20.9564 5.68524C21.0005 5.67235 21.0429 5.65417 21.0826 5.6311L21.1174 5.6109C21.1724 5.579 21.2222 5.53901 21.2652 5.49227C21.3137 5.43971 21.3528 5.37934 21.3811 5.31371L21.3846 5.30553C21.4128 5.24007 21.4306 5.17062 21.4374 5.09968L21.4469 5.00062L21.4575 4.90983C21.4636 4.85819 21.4623 4.80595 21.4538 4.75466L21.4453 4.70385C21.4398 4.67087 21.4284 4.63917 21.4115 4.61031C21.3958 4.5834 21.3847 4.55399 21.3789 4.52337L21.3749 4.50297C21.3703 4.47877 21.3634 4.45505 21.3544 4.43212L21.3384 4.39163L21.318 4.35293C21.3119 4.34128 21.3069 4.32907 21.3031 4.31646L21.2963 4.29391C21.2916 4.27808 21.2906 4.26135 21.2934 4.24507C21.3023 4.19438 21.3463 4.1574 21.3978 4.1574H21.4173L21.5159 4.16677L21.7132 4.21362L21.9203 4.26983L22.088 4.33542L22.2656 4.42911L22.4431 4.53217L22.5462 4.59204C22.5957 4.62078 22.6427 4.65371 22.6866 4.69048L22.7883 4.77577L22.8126 4.79649C22.862 4.83879 22.9073 4.88581 22.9476 4.9369L22.9757 4.97252L23.0546 5.09432L23.066 5.11229C23.0978 5.16267 23.1251 5.21579 23.1474 5.27102L23.1631 5.30981L23.2124 5.45034L23.2191 5.47261C23.2409 5.54498 23.2544 5.61958 23.2594 5.69499L23.2618 5.73142L23.2724 5.78542C23.285 5.8492 23.2914 5.91406 23.2914 5.97908V6.0406L23.2815 6.19987V6.34978V6.49969L23.2716 6.60275L23.2519 6.69644L23.2223 6.7995L23.1927 6.94004L23.173 7.14616V7.36165V7.36719C23.173 7.44437 23.1829 7.52124 23.2026 7.59588C23.2155 7.62657 23.2363 7.65333 23.2628 7.67348L23.2716 7.6802L23.2974 7.69857C23.3065 7.70502 23.3165 7.71002 23.3271 7.71337C23.3547 7.72211 23.3846 7.71924 23.4101 7.70544L23.4229 7.69845C23.4338 7.69255 23.4438 7.68526 23.4528 7.67675L23.4985 7.63335L23.5157 7.61701C23.5502 7.58422 23.5823 7.54902 23.6118 7.51166L23.6267 7.49282L23.676 7.41786L23.7253 7.34291L23.8338 7.18364C23.8666 7.12758 23.9053 7.07522 23.9493 7.02746L23.9522 7.02436L24.0212 6.95878L24.0903 6.89319L24.3763 6.65896L24.5507 6.55067C24.6053 6.51676 24.663 6.48819 24.7231 6.46537L24.7807 6.44347L24.8596 6.42473L24.9287 6.41537H24.9729C24.9828 6.41537 24.9926 6.41716 25.0018 6.42067L25.0168 6.42636C25.0297 6.43127 25.0398 6.44163 25.0444 6.45467C25.0461 6.45966 25.047 6.46491 25.047 6.4702V6.49969L25.046 6.51008C25.0402 6.5714 25.0238 6.63127 24.9977 6.68707L24.9673 6.74891C24.9417 6.80115 24.923 6.85653 24.9117 6.91363C24.9033 6.95612 24.8991 6.99932 24.8991 7.04263V7.23985L24.9188 7.51156L24.9484 7.77389L24.9977 8.0456L25.047 8.30793L25.1259 8.5609L25.1753 8.85134L25.2049 9.10431L25.2246 9.36665L25.2446 9.56973C25.251 9.63406 25.2511 9.69886 25.2449 9.76322L25.2246 9.97564L25.1654 10.2567L25.1528 10.3086C25.1415 10.3551 25.1259 10.4005 25.1062 10.4441L25.0668 10.5097L25.0125 10.6043C25.0092 10.6099 25.0065 10.6158 25.0044 10.622L24.983 10.6828C24.9749 10.706 24.9875 10.7313 25.011 10.7387C25.0215 10.7421 25.0328 10.7413 25.0428 10.7366L25.0871 10.7155C25.0998 10.7095 25.1117 10.7019 25.1225 10.6929L25.1391 10.6791C25.1696 10.6538 25.1954 10.6234 25.2153 10.5892L25.2344 10.5565L25.3528 10.3973L25.4712 10.2567L25.6124 10.1068L25.7769 9.9569L25.8562 9.8863C25.9084 9.8398 25.9654 9.79891 26.0261 9.7643L26.0646 9.74236C26.1095 9.71678 26.1563 9.69472 26.2046 9.67637L26.2516 9.65848C26.3033 9.63885 26.3565 9.62353 26.4107 9.61269L26.5167 9.59151L26.6415 9.57833C26.6766 9.57463 26.7119 9.57417 26.7471 9.57695L26.7845 9.57991C26.8032 9.58139 26.8216 9.58499 26.8394 9.59064L26.8558 9.59582C26.9041 9.61112 26.945 9.64401 26.9702 9.68797C26.9834 9.71089 26.9919 9.73615 26.9954 9.76235L26.9959 9.76643C26.9986 9.78712 26.9984 9.8081 26.9953 9.82874L26.9901 9.86321L26.9821 9.89371C26.9744 9.92298 26.9603 9.95017 26.9408 9.97333C26.9342 9.9811 26.9283 9.98936 26.923 9.99802L26.9052 10.0269C26.8765 10.0737 26.8537 10.124 26.8374 10.1765L26.8126 10.2567L26.7436 10.5659L26.7041 10.8751L26.6351 11.1749L26.5561 11.4841L26.4674 11.7651L26.3786 12.0462L26.1912 12.5709L25.9643 13.0956L25.7276 13.5734L25.4789 13.9808C25.454 14.0214 25.4263 14.0603 25.396 14.097L25.2751 14.2431C25.2415 14.2837 25.2047 14.3217 25.165 14.3566L24.9583 14.5384L24.6821 14.7633L24.3961 14.9507L24.0903 15.138L23.7549 15.3067L23.4097 15.466L23.1131 15.5802C23.0676 15.5977 23.0209 15.6119 22.9733 15.6226L22.67 15.6908L22.3149 15.7564L21.9697 15.822L21.5751 15.8876L21.22 15.9344L20.8551 15.9532L20.4605 15.9813H20.0759L19.7997 16L19.5235 15.9906L19.3336 15.9839C19.2827 15.9822 19.2321 15.9765 19.1821 15.967L19.0106 15.9344L18.7049 15.9063L18.4188 15.8501L18.1525 15.7939L17.8862 15.7002L17.6199 15.6065L17.3536 15.4941L17.1168 15.3723L16.8801 15.2505L16.6631 15.1099L16.4461 14.9413L16.3025 14.8308C16.2602 14.7983 16.2206 14.7625 16.1841 14.7237L16.0713 14.604L15.7304 14.2565C15.6882 14.2134 15.6499 14.1666 15.6161 14.1167L15.4894 13.9294L15.3502 13.709C15.3246 13.6686 15.3021 13.6264 15.2826 13.5828L15.1737 13.3392L15.0554 13.0394L14.937 12.7302L14.8384 12.4022L14.7792 12.0837L14.7299 11.7839L14.6608 11.4653L14.6115 11.1655L14.5326 10.8376L14.4932 10.6877L14.4537 10.5472L14.4166 10.4254L14.3965 10.3597C14.3755 10.2912 14.3473 10.2252 14.3122 10.1628L14.286 10.1162L14.2071 10.0037L14.1673 9.94699C14.1413 9.90997 14.1117 9.87562 14.0789 9.84447L14.0191 9.80185C14.0071 9.79332 14 9.77953 14 9.76483C14 9.75014 14.0071 9.73635 14.0191 9.72782L14.0539 9.70298C14.0704 9.69129 14.0893 9.68362 14.1092 9.68059L14.2662 9.65674C14.3057 9.65073 14.3456 9.64772 14.3855 9.64772H14.5819H14.7756C14.824 9.64772 14.8723 9.65123 14.9202 9.65823L15.1047 9.6852L15.2532 9.722C15.3054 9.73492 15.3564 9.75202 15.4058 9.77313L15.5288 9.82573L15.7081 9.89873C15.7266 9.90626 15.7445 9.91544 15.7614 9.92613L15.8338 9.97199C15.8836 10.0035 15.9459 10.0081 15.9998 9.98423C16.0395 9.96663 16.0713 9.93501 16.0892 9.89542L16.1075 9.85477C16.1162 9.83547 16.1228 9.81528 16.1272 9.79456L16.1311 9.77598C16.1437 9.71604 16.1445 9.65421 16.1333 9.59398L16.1206 9.52592L16.0812 9.38538L16.022 9.23548L15.9671 9.05021C15.9446 8.97412 15.9131 8.90098 15.8733 8.83233L15.6669 8.47658L15.4203 7.96127L15.3679 7.79528C15.3438 7.71884 15.3289 7.63977 15.3236 7.55977L15.3118 7.38039V7.19962C15.3118 7.04132 15.3494 6.88528 15.4215 6.74434L15.4795 6.63086L15.5486 6.5278L15.7884 6.23167C15.8257 6.18558 15.867 6.1429 15.9119 6.10414L16.1077 5.93507C16.1486 5.89976 16.1974 5.87481 16.25 5.86233L16.2734 5.85675C16.2833 5.8544 16.2935 5.85322 16.3036 5.85322H16.3274C16.3739 5.85322 16.4143 5.88509 16.4252 5.93029C16.4271 5.93823 16.428 5.94637 16.428 5.95453L16.4271 6.06312C16.4267 6.12914 16.4328 6.19504 16.4454 6.25985L16.4757 6.41537L16.6631 6.95878L16.7503 7.14801C16.7841 7.22146 16.8267 7.29053 16.8772 7.35372L16.9617 7.45959C16.9993 7.50663 17.041 7.55018 17.0865 7.58971L17.1366 7.63335L17.2135 7.68691C17.2605 7.7197 17.3126 7.74474 17.3676 7.76106L17.4014 7.7711C17.4285 7.77917 17.4567 7.78326 17.4851 7.78326H17.5251C17.5853 7.78326 17.6425 7.75703 17.6818 7.71141C17.6995 7.69081 17.713 7.6669 17.7215 7.64107L17.7463 7.56587C17.7541 7.5422 17.7598 7.5179 17.7635 7.49325C17.7729 7.43121 17.7689 7.36789 17.752 7.30748L17.7382 7.25859L17.5501 6.49287C17.5375 6.44128 17.5289 6.38877 17.5246 6.33582L17.4522 5.45034V4.90918C17.4522 4.85779 17.4562 4.80648 17.464 4.7557L17.541 4.26046L17.6429 3.92523C17.6604 3.86776 17.683 3.81198 17.7105 3.75857L17.8862 3.41724L18.1032 3.10806L18.33 2.81761L18.5766 2.52717L18.7838 2.28357L19.0008 1.97439L19.1783 1.65584L19.3756 1.33729L19.5196 1.0475C19.5341 1.0184 19.5638 1 19.5963 1C19.6132 1 19.6296 1.00498 19.6437 1.01432L19.6711 1.03254C19.7035 1.05407 19.7287 1.08482 19.7434 1.12082L19.7898 1.23423L19.849 1.37477L20.0266 1.78701L20.1252 2.02124L20.2041 2.30231L20.2436 2.52717L20.2731 2.73329L20.3027 2.94878L20.3126 3.17364V3.35166V3.52967L20.2929 3.80137L20.2633 4.06371Z" fill="#D30000"/>
<path d="M0.434659 15V0.454545H3.0696V6.61222H9.80966V0.454545H12.4517V15H9.80966V8.82102H3.0696V15H0.434659Z" fill="black"/>
<path d="M34.7685 4.09091V6.07955H28.4972V4.09091H34.7685ZM30.0455 1.47727H32.6165V11.7188C32.6165 12.0644 32.6686 12.3295 32.7727 12.5142C32.8816 12.6941 33.0237 12.8172 33.1989 12.8835C33.3741 12.9498 33.5682 12.983 33.7812 12.983C33.9422 12.983 34.089 12.9711 34.2216 12.9474C34.3589 12.9238 34.4631 12.9025 34.5341 12.8835L34.9673 14.8935C34.83 14.9408 34.6335 14.9929 34.3778 15.0497C34.1269 15.1065 33.8191 15.1397 33.4545 15.1491C32.8106 15.1681 32.2306 15.071 31.7145 14.858C31.1984 14.6402 30.7888 14.304 30.4858 13.8494C30.1875 13.3949 30.0407 12.8267 30.0455 12.1449V1.47727ZM39.1701 15L36.0877 4.09091H38.7085L40.6261 11.7614H40.7255L42.6857 4.09091H45.2781L47.2383 11.7188H47.3448L49.234 4.09091H51.8619L48.7724 15H46.0948L44.0494 7.62784H43.9002L41.8548 15H39.1701ZM58.103 15.2131C57.0376 15.2131 56.1143 14.9787 55.3331 14.5099C54.5518 14.0412 53.9458 13.3854 53.5149 12.5426C53.0888 11.6998 52.8757 10.715 52.8757 9.58807C52.8757 8.46117 53.0888 7.47396 53.5149 6.62642C53.9458 5.77888 54.5518 5.12074 55.3331 4.65199C56.1143 4.18324 57.0376 3.94886 58.103 3.94886C59.1683 3.94886 60.0916 4.18324 60.8729 4.65199C61.6541 5.12074 62.2578 5.77888 62.6839 6.62642C63.1148 7.47396 63.3303 8.46117 63.3303 9.58807C63.3303 10.715 63.1148 11.6998 62.6839 12.5426C62.2578 13.3854 61.6541 14.0412 60.8729 14.5099C60.0916 14.9787 59.1683 15.2131 58.103 15.2131ZM58.1172 13.1534C58.6948 13.1534 59.1778 12.9948 59.5661 12.6776C59.9543 12.3556 60.2431 11.9247 60.4325 11.3849C60.6267 10.8452 60.7237 10.2438 60.7237 9.58097C60.7237 8.91335 60.6267 8.30966 60.4325 7.76989C60.2431 7.22538 59.9543 6.79214 59.5661 6.47017C59.1778 6.1482 58.6948 5.98722 58.1172 5.98722C57.5253 5.98722 57.0329 6.1482 56.6399 6.47017C56.2517 6.79214 55.9605 7.22538 55.7663 7.76989C55.5769 8.30966 55.4822 8.91335 55.4822 9.58097C55.4822 10.2438 55.5769 10.8452 55.7663 11.3849C55.9605 11.9247 56.2517 12.3556 56.6399 12.6776C57.0329 12.9948 57.5253 13.1534 58.1172 13.1534ZM65.5124 15V4.09091H68.0053V5.90909H68.119C68.3178 5.27936 68.6587 4.79403 69.1417 4.45312C69.6294 4.10748 70.1857 3.93466 70.8107 3.93466C70.9528 3.93466 71.1114 3.94176 71.2866 3.95597C71.4665 3.96544 71.6156 3.98201 71.734 4.00568V6.37074C71.6251 6.33286 71.4523 6.29972 71.2156 6.27131C70.9835 6.23816 70.7586 6.22159 70.5408 6.22159C70.0721 6.22159 69.6507 6.32339 69.2766 6.52699C68.9073 6.72585 68.6161 7.00284 68.4031 7.35795C68.19 7.71307 68.0835 8.12263 68.0835 8.58665V15H65.5124ZM75.7859 11.5767L75.7788 8.47301H76.1907L80.1112 4.09091H83.1154L78.293 9.46023H77.7603L75.7859 11.5767ZM73.4421 15V0.454545H76.0131V15H73.4421ZM80.2887 15L76.7376 10.0355L78.4705 8.22443L83.364 15H80.2887Z" fill="black"/>
</svg>
